<svg xmlns:xlink="http://www.w3.org/1999/xlink" xmlns="http://www.w3.org/2000/svg" width="18" height="18"
     viewBox="0 0 18 18">
    <defs>
        <rect id="a" width="16.667" height="16.667" rx="3"/>
    </defs>
    <g fill="none" fill-rule="evenodd" transform="translate(.667 .667)">
        <mask id="b" fill="#fff">
            <use xlink:href="#a"/>
        </mask>
        <use fill="#9AA0A6" xlink:href="#a"/>
        <g fill="#FFF" fill-rule="nonzero" mask="url(#b)">
            <path d="M3.34 4.17L.87 6.638h1.632c.973 0 1.617.03 1.594.067-.097.157.112 1.19.337 1.64.284.583.943 1.271 1.482 1.54.471.24 1.227.42 1.803.42h.412l-.023.591c-.022.486 0 .644.135.905.09.173.142.33.12.352-.015.023-.315.068-.659.105-1.063.12-1.908.36-2.694.763-.838.427-1.302.868-1.624 1.55-.164.366-.187.508-.194 1.271 0 .741.022.906.164 1.16.404.764 1.4 1.452 2.485 1.73.733.186 3.517.111 4.175-.106.943-.321 1.984-.965 2.41-1.504.127-.157.352-.554.509-.868.225-.479.277-.688.307-1.175a4.58 4.58 0 0 0-.053-1.003c-.134-.576-.703-1.414-1.31-1.908-.822-.666-1.556-1.37-1.623-1.549-.112-.292.12-.636.913-1.37.816-.755 1.115-1.174 1.295-1.78.15-.51.157-1.34.015-1.879l-.113-.411 1.01-1.01 1.003-1.01v.32c0 .218-.045.36-.15.465-.142.142-.149.247-.149 2.918 0 2.672.007 2.777.15 2.919.202.202.696.202.898 0 .142-.142.15-.247.15-2.919V4.087l-.188-.172c-.164-.157-.187-.232-.187-.726v-.546l.464-.472.464-.471H5.81L3.34 4.17zm5.254-.307c.546.254.987.733 1.302 1.406.381.824.539 1.445.539 2.156 0 .928-.24 1.37-.958 1.743-.577.3-1.153.277-1.7-.052-.717-.434-1.174-1.205-1.45-2.447-.3-1.37.141-2.462 1.137-2.829.404-.15.763-.142 1.13.023zm.943 9.301c.381.202 1.496 1.16 1.69 1.452.465.704.472 1.4.016 2.126-.404.65-1.055.942-2.305 1.025-1.37.09-2.515-.285-3.218-1.048-.374-.404-.501-.77-.501-1.407 0-.808.449-1.392 1.392-1.826.718-.33 2.544-.531 2.926-.322z"/>
        </g>
    </g>
</svg>