<svg height="426pt" viewBox="0 -1 426.66667 426" width="426pt" xmlns="http://www.w3.org/2000/svg"><path d="m150.1875 423.585938c-82.8125 0-150.1875-67.375-150.1875-150.1875s67.375-150.183594 150.1875-150.183594 150.1875 67.371094 150.1875 150.183594-67.375 150.1875-150.1875 150.1875zm0-286.71875c-75.285156 0-136.535156 61.246093-136.535156 136.53125 0 75.289062 61.25 136.535156 136.535156 136.535156s136.53125-61.246094 136.53125-136.535156c0-75.285157-61.246094-136.53125-136.53125-136.53125zm0 0"/><path d="m102.398438 211.960938c0 7.539062-6.109376 13.652343-13.652344 13.652343-7.539063 0-13.652344-6.113281-13.652344-13.652343 0-7.542969 6.113281-13.652344 13.652344-13.652344 7.542968 0 13.652344 6.109375 13.652344 13.652344zm0 0"/><path d="m225.28125 211.960938c0 7.539062-6.113281 13.652343-13.65625 13.652343-7.539062 0-13.652344-6.113281-13.652344-13.652343 0-7.542969 6.113282-13.652344 13.652344-13.652344 7.542969 0 13.65625 6.109375 13.65625 13.652344zm0 0"/><path d="m341.332031 280.226562c-8.992187 0-17.792969-3.640624-24.144531-9.980468-6.359375-6.445313-9.988281-15.238282-9.988281-24.152344s3.628906-17.707031 9.953125-24.113281c6.472656-6.394531 15.265625-10.019531 24.179687-10.019531 8.914063 0 17.707031 3.625 24.113281 9.953124 6.394532 6.484376 10.019532 15.273438 10.019532 24.179688s-3.625 17.691406-9.953125 24.113281c-1.890625 1.792969-3.523438 3.125-5.171875 4.253907-2.011719 1.285156-3.945313 2.292968-5.933594 3.117187-2.152344.902344-4.332031 1.566406-6.460938 1.980469-2.359374.449218-4.519531.667968-6.613281.667968zm0-54.613281c-5.351562 0-10.644531 2.191407-14.527343 6.019531-3.757813 3.8125-5.953126 9.105469-5.953126 14.460938 0 5.351562 2.195313 10.644531 6.019532 14.527344 3.773437 3.765625 9.0625 5.953125 14.460937 5.953125 1.226563 0 2.546875-.140625 4.046875-.425781 1.199219-.230469 2.46875-.621094 3.765625-1.167969 1.28125-.535157 2.507813-1.175781 3.679688-1.914063 1.007812-.699218 2.101562-1.632812 3.140625-2.621094 3.65625-3.707031 5.847656-9.003906 5.847656-14.351562s-2.191406-10.648438-6.019531-14.527344c-3.8125-3.761718-9.105469-5.953125-14.460938-5.953125zm0 0"/><path d="m184.320312 293.878906h-68.265624c-3.773438 0-6.828126-3.050781-6.828126-6.824218 0-3.773438 3.054688-6.828126 6.828126-6.828126h68.265624c3.773438 0 6.828126 3.054688 6.828126 6.828126 0 3.773437-3.054688 6.824218-6.828126 6.824218zm0 0"/><path d="m341.332031 205.132812c-18.816406 0-34.132812-15.3125-34.132812-34.132812v-34.132812c0-18.820313 15.316406-34.132813 34.132812-34.132813 9.414063 0 17.066407-7.652344 17.066407-17.066406 0-9.414063-7.652344-17.066407-17.066407-17.066407-9.414062 0-17.066406 7.652344-17.066406 17.066407 0 18.816406-15.3125 34.132812-34.132813 34.132812-18.820312 0-34.132812-15.316406-34.132812-34.132812 0-47.054688 38.28125-85.335938 85.332031-85.335938 47.054688 0 85.335938 38.28125 85.335938 85.335938 0 33.867187-20.386719 64.707031-51.203125 78.203125v7.128906c0 18.820312-15.3125 34.132812-34.132813 34.132812zm0-150.1875c16.941407 0 30.722657 13.78125 30.722657 30.722657 0 16.9375-13.78125 30.71875-30.722657 30.71875-11.292969 0-20.480469 9.1875-20.480469 20.480469v34.132812c0 11.292969 9.1875 20.480469 20.480469 20.480469s20.480469-9.1875 20.480469-20.480469v-11.726562c0-2.851563 1.773438-5.40625 4.445312-6.398438 27.96875-10.410156 46.753907-37.414062 46.753907-67.207031 0-39.527344-32.152344-71.679688-71.679688-71.679688-39.523437 0-71.679687 32.152344-71.679687 71.679688 0 11.292969 9.1875 20.480469 20.480468 20.480469 11.292969 0 20.480469-9.1875 20.480469-20.480469 0-16.941407 13.78125-30.722657 30.71875-30.722657zm0 0"/></svg>